<svg xmlns="http://www.w3.org/2000/svg" viewBox="0 0 1600 900" role="img" aria-labelledby="title desc">
  <title id="title">Zendesk support workload proof</title>
  <desc id="desc">A stylized dashboard showing an assigned tickets queue with 1023 tickets, ticket statuses, and a support workspace layout.</desc>
  <defs>
    <linearGradient id="bg" x1="0" y1="0" x2="1" y2="1">
      <stop offset="0" stop-color="#16232f" />
      <stop offset="1" stop-color="#111c28" />
    </linearGradient>
    <linearGradient id="panel" x1="0" y1="0" x2="0" y2="1">
      <stop offset="0" stop-color="#1b2c3c" />
      <stop offset="1" stop-color="#122132" />
    </linearGradient>
    <linearGradient id="teal" x1="0" y1="0" x2="1" y2="1">
      <stop offset="0" stop-color="#7ce8d4" />
      <stop offset="1" stop-color="#4ecde8" />
    </linearGradient>
  </defs>

  <rect width="1600" height="900" rx="28" fill="url(#bg)" />
  <rect x="0" y="0" width="1600" height="62" fill="#141b22" />
  <rect x="0" y="62" width="54" height="838" fill="#0b5c63" />
  <rect x="54" y="62" width="318" height="838" fill="#17212a" />
  <rect x="372" y="62" width="1228" height="838" fill="#131c23" />

  <rect x="63" y="116" width="290" height="418" rx="12" fill="#161f27" stroke="#2a3a46" />
  <rect x="63" y="544" width="290" height="224" rx="12" fill="#161f27" stroke="#2a3a46" />

  <text x="76" y="100" fill="#ced9e2" font-size="17" font-family="Arial, Helvetica, sans-serif">No organization</text>
  <rect x="200" y="74" width="63" height="28" rx="6" fill="#2a3642" />
  <text x="213" y="93" fill="#ffffff" font-size="16" font-family="Arial, Helvetica, sans-serif">Grok</text>

  <circle cx="421" cy="166" r="22" fill="#d9d9d9" />
  <circle cx="421" cy="166" r="18" fill="url(#teal)" opacity="0.85" />
  <text x="463" y="177" fill="#ffffff" font-size="42" font-family="Arial, Helvetica, sans-serif">Grok</text>
  <text x="76" y="162" fill="#97a8b7" font-size="15" font-family="Arial, Helvetica, sans-serif">Agent</text>
  <text x="76" y="188" fill="#ced9e2" font-size="21" font-family="Arial, Helvetica, sans-serif">forwarding</text>

  <text x="424" y="226" fill="#ffffff" font-size="18" font-family="Arial, Helvetica, sans-serif">Tickets</text>
  <text x="495" y="226" fill="#9eb2c4" font-size="18" font-family="Arial, Helvetica, sans-serif">Help Center</text>
  <text x="620" y="226" fill="#9eb2c4" font-size="18" font-family="Arial, Helvetica, sans-serif">Related</text>
  <text x="712" y="226" fill="#9eb2c4" font-size="18" font-family="Arial, Helvetica, sans-serif">Security Settings</text>
  <rect x="424" y="235" width="92" height="4" rx="2" fill="#39b8ff" />

  <text x="436" y="284" fill="#ffffff" font-size="20" font-family="Arial, Helvetica, sans-serif">Assigned tickets (1023)</text>
  <rect x="1452" y="144" width="114" height="44" rx="8" fill="none" stroke="#2c8bd8" />
  <text x="1478" y="172" fill="#39b8ff" font-size="17" font-family="Arial, Helvetica, sans-serif">New ticket</text>

  <rect x="420" y="310" width="1120" height="490" rx="14" fill="#121a22" stroke="#273641" />
  <rect x="420" y="310" width="1120" height="64" rx="14" fill="#151f29" />
  <text x="484" y="350" fill="#ced9e2" font-size="16" font-family="Arial, Helvetica, sans-serif">Ticket status</text>
  <text x="635" y="350" fill="#ced9e2" font-size="16" font-family="Arial, Helvetica, sans-serif">ID</text>
  <text x="698" y="350" fill="#ced9e2" font-size="16" font-family="Arial, Helvetica, sans-serif">Subject</text>
  <text x="1114" y="350" fill="#ced9e2" font-size="16" font-family="Arial, Helvetica, sans-serif">Requester</text>
  <text x="1246" y="350" fill="#ced9e2" font-size="16" font-family="Arial, Helvetica, sans-serif">Requested</text>
  <text x="1352" y="350" fill="#ced9e2" font-size="16" font-family="Arial, Helvetica, sans-serif">Updated</text>
  <text x="1450" y="350" fill="#ced9e2" font-size="16" font-family="Arial, Helvetica, sans-serif">Group</text>

  <g font-family="Arial, Helvetica, sans-serif" font-size="16">
    <rect x="420" y="374" width="1120" height="46" fill="#182028" />
    <text x="438" y="404" fill="#d9e2eb">Status Category: Closed</text>

    <rect x="420" y="420" width="1120" height="48" fill="none" />
    <rect x="486" y="432" width="64" height="24" rx="8" fill="#c0c7ce" />
    <text x="501" y="449" fill="#1d252b">Closed</text>
    <text x="634" y="449" fill="#ced9e2">#6084</text>
    <text x="720" y="449" fill="#eaf2f8">[GAME7-PROD] test</text>
    <text x="1114" y="449" fill="#ced9e2">grok0</text>
    <text x="1250" y="449" fill="#ced9e2">May 15</text>
    <text x="1358" y="449" fill="#ced9e2">May 17</text>
    <text x="1450" y="449" fill="#ced9e2">Community Team</text>

    <line x1="438" y1="468" x2="1518" y2="468" stroke="#273641" />
    <rect x="486" y="480" width="144" height="24" rx="8" fill="#bfc7cf" />
    <text x="497" y="497" fill="#1d252b">Closed - No Response</text>
    <text x="634" y="497" fill="#ced9e2">#5859</text>
    <text x="720" y="497" fill="#eaf2f8">[GAME7-PROD] Why I'm banned?</text>
    <text x="1114" y="497" fill="#ced9e2">cryptocapri</text>
    <text x="1250" y="497" fill="#ced9e2">Mar 24</text>
    <text x="1358" y="497" fill="#ced9e2">Apr 03</text>
    <text x="1450" y="497" fill="#ced9e2">Community Team</text>

    <line x1="438" y1="516" x2="1518" y2="516" stroke="#273641" />
    <rect x="486" y="528" width="70" height="24" rx="8" fill="#a9bfd3" />
    <text x="501" y="545" fill="#173047">Solved</text>
    <text x="634" y="545" fill="#ced9e2">#5963</text>
    <text x="720" y="545" fill="#eaf2f8">[GAME7-PROD] Good afternoon...</text>
    <text x="1114" y="545" fill="#ced9e2">shellstrop0187</text>
    <text x="1250" y="545" fill="#ced9e2">Apr 01</text>
    <text x="1358" y="545" fill="#ced9e2">Apr 03</text>
    <text x="1450" y="545" fill="#ced9e2">Community Team</text>

    <line x1="438" y1="564" x2="1518" y2="564" stroke="#273641" />
    <rect x="486" y="576" width="70" height="24" rx="8" fill="#a9bfd3" />
    <text x="501" y="593" fill="#173047">Solved</text>
    <text x="634" y="593" fill="#ced9e2">#5825</text>
    <text x="720" y="593" fill="#eaf2f8">[GAME7-PROD] Something's Missing Here</text>
    <text x="1114" y="593" fill="#ced9e2">06zerosix</text>
    <text x="1250" y="593" fill="#ced9e2">Mar 19</text>
    <text x="1358" y="593" fill="#ced9e2">Mar 28</text>
    <text x="1450" y="593" fill="#ced9e2">Community Team</text>

    <line x1="438" y1="612" x2="1518" y2="612" stroke="#273641" />
    <rect x="486" y="624" width="70" height="24" rx="8" fill="#a9bfd3" />
    <text x="501" y="641" fill="#173047">Solved</text>
    <text x="634" y="641" fill="#ced9e2">#5853</text>
    <text x="720" y="641" fill="#eaf2f8">[GAME7-PROD] user is banned issue</text>
    <text x="1114" y="641" fill="#ced9e2">adarshx37</text>
    <text x="1250" y="641" fill="#ced9e2">Mar 23</text>
    <text x="1358" y="641" fill="#ced9e2">Mar 27</text>
    <text x="1450" y="641" fill="#ced9e2">Community Team</text>
  </g>

  <g fill="#ced9e2" font-family="Arial, Helvetica, sans-serif">
    <text x="76" y="244" font-size="16">Primary</text>
    <text x="76" y="276" font-size="27">support profile</text>
    <text x="76" y="330" font-size="16">Language</text>
    <text x="76" y="364" font-size="23">English (United States)</text>
    <text x="76" y="414" font-size="16">Time zone</text>
    <text x="76" y="448" font-size="23">(GMT+05:30) Kolkata</text>
    <text x="76" y="622" font-size="16">Discord display name</text>
    <rect x="76" y="638" width="258" height="44" rx="6" fill="none" stroke="#31414e" />
    <text x="90" y="668" font-size="20">Grok</text>
    <text x="76" y="728" font-size="16">Created Jul 01, 2024 23:35</text>
    <text x="76" y="758" font-size="16">Updated less than a minute ago</text>
  </g>

  <g fill="#ffffff">
    <rect x="16" y="18" width="12" height="28" transform="rotate(14 22 32)" />
    <rect x="34" y="20" width="14" height="18" transform="rotate(-14 41 29)" />
  </g>
</svg>
